<svg width="57" height="23" viewBox="0 0 57 23" fill="none" xmlns="http://www.w3.org/2000/svg">
<path fill-rule="evenodd" clip-rule="evenodd" d="M22 11.5C22 17.299 17.299 22 11.5 22C5.70101 22 1 17.299 1 11.5C1 5.70101 5.70101 1 11.5 1C17.299 1 22 5.70101 22 11.5ZM23 11.5C23 17.8513 17.8513 23 11.5 23C5.14873 23 0 17.8513 0 11.5C0 5.14873 5.14873 0 11.5 0C17.8513 0 23 5.14873 23 11.5ZM11.5 20C16.1944 20 20 16.1944 20 11.5C20 6.80558 16.1944 3 11.5 3C6.80558 3 3 6.80558 3 11.5C3 16.1944 6.80558 20 11.5 20ZM34 23C38.6799 23 40.7369 17.8513 40.7369 11.5C40.7369 5.14873 38.6799 0 34 0H48C52.6799 0 56.4737 5.14873 56.4737 11.5C56.4737 17.8513 52.6799 23 48 23H34ZM25.4737 11.5C25.4737 17.8513 21.6799 23 17 23H31C35.6799 23 38.2368 17.8513 38.2368 11.5C38.2368 5.14873 35.6799 0 31 0H17C21.6799 0 25.4737 5.14873 25.4737 11.5Z" fill="black"/>
</svg>
